<svg xmlns="http://www.w3.org/2000/svg" width="485.472" height="226.572" viewBox="0 0 485.472 226.572">
  <g id="Warstwa_x0020_1" transform="translate(-743 -741)">
    <path id="Path_1" data-name="Path 1" d="M743,745l.156,219.942h57.1V870.036l74,94.906q38.165-.026,76.32-.06Q903.312,906.3,856.05,847.715,892.359,796.358,928.677,745H865.943l-65.752,92.432q-.013-46.22-.026-92.432H743Z" transform="translate(0 -3.966)" fill="#fefefe"/>
    <path id="Path_2" data-name="Path 2" d="M743,745l.156,219.942h57.1V870.036l74,94.906q38.165-.026,76.32-.06Q903.312,906.3,856.05,847.715,892.359,796.358,928.677,745H865.943l-65.752,92.432q-.013-46.22-.026-92.432H743Z" transform="translate(0 -3.966)" fill="none"/>
    <path id="Path_3" data-name="Path 3" d="M7843,17163.289h81.519q-40.746-42.639-81.5-85.287Z" transform="translate(-7038.599 -16195.717)" fill="#fefefe"/>
    <path id="Path_4" data-name="Path 4" d="M8583,19374.348h45.359q-22.673-29.666-45.351-59.346Z" transform="translate(-7772.198 -18413.369)" fill="none"/>
    <path id="Path_5" data-name="Path 5" d="M24238.232,741.017q-18.313.013-36.639.017v95.321s-1.674,56.447,67.176,56.447,66.939-56.784,66.939-56.784l.008-94.992h-37.205l.078,92.181s-2.057,30.615-29.939,30.615-30.492-30.952-30.492-30.952q.035-45.935.074-91.87Z" transform="translate(-23255.715)" fill="#fefefe"/>
    <path id="Path_6" data-name="Path 6" d="M24238.232,741.017q-18.313.013-36.639.017v95.321s-1.674,56.447,67.176,56.447,66.939-56.784,66.939-56.784l.008-94.992h-37.205l.078,92.181s-2.057,30.615-29.939,30.615-30.492-30.952-30.492-30.952q.035-45.935.074-91.87Z" transform="translate(-23255.715)" fill="none"/>
    <path id="Path_7" data-name="Path 7" d="M41795.582,792.7V756.969S41786.539,745,41746.336,745,41664,764.061,41664,820.888s39.969,75.888,80.418,75.888,51.156-14.858,51.156-14.858V846.513s-24.27,20.548-51.875,20.548-42.828-25.746-42.828-46.173,17.137-45.68,46.4-45.68a76.589,76.589,0,0,1,48.3,17.5Z" transform="translate(-40567.113 -3.966)" fill="#fefefe"/>
    <path id="Path_8" data-name="Path 8" d="M41795.582,792.7V756.969S41786.539,745,41746.336,745,41664,764.061,41664,820.888s39.969,75.888,80.418,75.888,51.156-14.858,51.156-14.858V846.513s-24.27,20.548-51.875,20.548-42.828-25.746-42.828-46.173,17.137-45.68,46.4-45.68a76.589,76.589,0,0,1,48.3,17.5Z" transform="translate(-40567.113 -3.966)" fill="none"/>
    <path id="Path_9" data-name="Path 9" d="M20681,19314.014l47.672,59.34,265.375.328v-59.668q-156.519,0-313.047-.012Z" transform="translate(-19765.574 -18412.379)" fill="#fefefe"/>
    <path id="Path_10" data-name="Path 10" d="M20681,19314.014l47.672,59.34,265.375.328v-59.668q-156.519,0-313.047-.012Z" transform="translate(-19765.574 -18412.379)" fill="none"/>
    <path id="Path_11" data-name="Path 11" d="M31214,21498.521V21473h7.41l4.461,17.41,4.4-17.41h7.422v25.52h-4.6v-20.088l-4.871,20.088h-4.77l-4.855-20.088v20.088Z" transform="translate(-30207.48 -20552.709)" fill="#fefefe"/>
    <path id="Path_12" data-name="Path 12" d="M31214,21498.521V21473h7.41l4.461,17.41,4.4-17.41h7.422v25.52h-4.6v-20.088l-4.871,20.088h-4.77l-4.855-20.088v20.088Z" transform="translate(-30207.48 -20552.709)" fill="none"/>
    <path id="Path_13" data-name="Path 13" d="M36781,21498.521V21473h18.18v4.313h-13.234v5.658h12.32v4.3h-12.32v6.955h13.711v4.3Z" transform="translate(-35726.336 -20552.709)" fill="#fefefe"/>
    <path id="Path_14" data-name="Path 14" d="M36781,21498.521V21473h18.18v4.313h-13.234v5.658h12.32v4.3h-12.32v6.955h13.711v4.3Z" transform="translate(-35726.336 -20552.709)" fill="none"/>
    <path id="Path_15" data-name="Path 15" d="M41687.957,21486.4v6.822h4.586a22.256,22.256,0,0,0,3.4-.152,3.01,3.01,0,0,0,1.8-1.023,3.216,3.216,0,0,0,.7-2.17,3.391,3.391,0,0,0-.539-1.949,3.013,3.013,0,0,0-1.551-1.166,16.232,16.232,0,0,0-4.387-.361Zm0-10.15v5.9h3.242c1.926,0,3.129-.027,3.6-.088a3.2,3.2,0,0,0,2-.916,2.768,2.768,0,0,0,.719-1.99,2.823,2.823,0,0,0-.629-1.92,2.769,2.769,0,0,0-1.863-.9c-.492-.061-1.906-.084-4.234-.084h-2.836ZM41683,21472h9.809a27.706,27.706,0,0,1,4.336.252,6.1,6.1,0,0,1,2.559,1.053,6.532,6.532,0,0,1,1.891,2.137,6.042,6.042,0,0,1,.75,2.986,6.137,6.137,0,0,1-.922,3.283,5.9,5.9,0,0,1-2.516,2.248,6.45,6.45,0,0,1,3.445,2.318,6.3,6.3,0,0,1,1.2,3.85,7.911,7.911,0,0,1-.777,3.391,6.472,6.472,0,0,1-5.449,3.838c-.824.1-2.816.146-5.973.176h-8.344v-25.521Z" transform="translate(-40585.945 -20551.715)" fill="#fefefe"/>
    <path id="Path_16" data-name="Path 16" d="M41687.957,21486.4v6.822h4.586a22.256,22.256,0,0,0,3.4-.152,3.01,3.01,0,0,0,1.8-1.023,3.216,3.216,0,0,0,.7-2.17,3.391,3.391,0,0,0-.539-1.949,3.013,3.013,0,0,0-1.551-1.166,16.232,16.232,0,0,0-4.387-.361Zm0-10.15v5.9h3.242c1.926,0,3.129-.027,3.6-.088a3.2,3.2,0,0,0,2-.916,2.768,2.768,0,0,0,.719-1.99,2.823,2.823,0,0,0-.629-1.92,2.769,2.769,0,0,0-1.863-.9c-.492-.061-1.906-.084-4.234-.084h-2.836ZM41683,21472h9.809a27.706,27.706,0,0,1,4.336.252,6.1,6.1,0,0,1,2.559,1.053,6.532,6.532,0,0,1,1.891,2.137,6.042,6.042,0,0,1,.75,2.986,6.137,6.137,0,0,1-.922,3.283,5.9,5.9,0,0,1-2.516,2.248,6.45,6.45,0,0,1,3.445,2.318,6.3,6.3,0,0,1,1.2,3.85,7.911,7.911,0,0,1-.777,3.391,6.472,6.472,0,0,1-5.449,3.838c-.824.1-2.816.146-5.973.176h-8.344v-25.521Z" transform="translate(-40585.945 -20551.715)" fill="none"/>
    <path id="Path_17" data-name="Path 17" d="M46816,21522.313V21497h4.957v21.014h12.316v4.3Z" transform="translate(-45674.551 -20576.5)" fill="#fefefe"/>
    <path id="Path_18" data-name="Path 18" d="M46816,21522.313V21497h4.957v21.014h12.316v4.3Z" transform="translate(-45674.551 -20576.5)" fill="none"/>
    <path id="Path_19" data-name="Path 19" d="M51479,21498.521V21473h18.188v4.313h-13.234v5.658h12.32v4.3h-12.32v6.955h13.7v4.3Z" transform="translate(-50297.227 -20552.709)" fill="#fefefe"/>
    <path id="Path_20" data-name="Path 20" d="M51479,21498.521V21473h18.188v4.313h-13.234v5.658h12.32v4.3h-12.32v6.955h13.7v4.3Z" transform="translate(-50297.227 -20552.709)" fill="none"/>
    <path id="Path_21" data-name="Path 21" d="M743,745l.156,219.942h57.1V870.036l74,94.906q38.165-.026,76.32-.06Q903.312,906.3,856.05,847.715,892.359,796.358,928.677,745H865.943l-65.752,92.432q-.013-46.22-.026-92.432H743Z" transform="translate(0 -3.966)" fill="#2b2a29"/>
    <path id="Path_22" data-name="Path 22" d="M8583,19374.348h45.359q-22.673-29.666-45.351-59.346Z" transform="translate(-7772.198 -18413.369)" fill="#e21e28"/>
    <path id="Path_23" data-name="Path 23" d="M24238.232,741.017q-18.313.013-36.639.017v95.321s-1.674,56.447,67.176,56.447,66.939-56.784,66.939-56.784l.008-94.992h-37.205l.078,92.181s-2.057,30.615-29.939,30.615-30.492-30.952-30.492-30.952q.035-45.935.074-91.87Z" transform="translate(-23255.715)" fill="#2b2a29"/>
    <path id="Path_24" data-name="Path 24" d="M41795.582,792.7V756.969S41786.539,745,41746.336,745,41664,764.061,41664,820.888s39.969,75.888,80.418,75.888,51.156-14.858,51.156-14.858V846.513s-24.27,20.548-51.875,20.548-42.828-25.746-42.828-46.173,17.137-45.68,46.4-45.68a76.589,76.589,0,0,1,48.3,17.5Z" transform="translate(-40567.113 -3.966)" fill="#2b2a29"/>
    <path id="Path_25" data-name="Path 25" d="M20681,19314.014l47.672,59.34,265.375.328v-59.668q-156.519,0-313.047-.012Z" transform="translate(-19765.574 -18412.379)" fill="#e21e28"/>
    <path id="Path_26" data-name="Path 26" d="M31214,21498.521V21473h7.41l4.461,17.41,4.4-17.41h7.422v25.52h-4.6v-20.088l-4.871,20.088h-4.77l-4.855-20.088v20.088Z" transform="translate(-30207.48 -20552.709)" fill="#fefefe"/>
    <path id="Path_27" data-name="Path 27" d="M36781,21498.521V21473h18.18v4.313h-13.234v5.658h12.32v4.3h-12.32v6.955h13.711v4.3Z" transform="translate(-35726.336 -20552.709)" fill="#fefefe"/>
    <path id="Path_28" data-name="Path 28" d="M41687.957,21486.4v6.822h4.586a22.256,22.256,0,0,0,3.4-.152,3.01,3.01,0,0,0,1.8-1.023,3.216,3.216,0,0,0,.7-2.17,3.391,3.391,0,0,0-.539-1.949,3.013,3.013,0,0,0-1.551-1.166,16.232,16.232,0,0,0-4.387-.361Zm0-10.15v5.9h3.242c1.926,0,3.129-.027,3.6-.088a3.2,3.2,0,0,0,2-.916,2.768,2.768,0,0,0,.719-1.99,2.823,2.823,0,0,0-.629-1.92,2.769,2.769,0,0,0-1.863-.9c-.492-.061-1.906-.084-4.234-.084h-2.836ZM41683,21472h9.809a27.706,27.706,0,0,1,4.336.252,6.1,6.1,0,0,1,2.559,1.053,6.532,6.532,0,0,1,1.891,2.137,6.042,6.042,0,0,1,.75,2.986,6.137,6.137,0,0,1-.922,3.283,5.9,5.9,0,0,1-2.516,2.248,6.45,6.45,0,0,1,3.445,2.318,6.3,6.3,0,0,1,1.2,3.85,7.911,7.911,0,0,1-.777,3.391,6.472,6.472,0,0,1-5.449,3.838c-.824.1-2.816.146-5.973.176h-8.344v-25.521Z" transform="translate(-40585.945 -20551.715)" fill="#fefefe"/>
    <path id="Path_29" data-name="Path 29" d="M46816,21522.313V21497h4.957v21.014h12.316v4.3Z" transform="translate(-45674.551 -20576.5)" fill="#fefefe"/>
    <path id="Path_30" data-name="Path 30" d="M51479,21498.521V21473h18.188v4.313h-13.234v5.658h12.32v4.3h-12.32v6.955h13.7v4.3Z" transform="translate(-50297.227 -20552.709)" fill="#fefefe"/>
  </g>
</svg>
